HIERARCHY
ROOT Hips
{
  OFFSET 5.80788e-005 67.184 3.4734
  CHANNELS 6 Xposition Yposition Zposition Zrotation Xrotation Yrotation
  JOINT Chest
  {
    OFFSET 0 8.7983 -4.7612
    CHANNELS 6 Xposition Yposition Zposition Zrotation Xrotation Yrotation
    JOINT Chest2
    {
      OFFSET 0 8.0291 0.4195
      CHANNELS 6 Xposition Yposition Zposition Zrotation Xrotation Yrotation
      JOINT Chest3
      {
        OFFSET 0 9.9351 -2.2114
        CHANNELS 6 Xposition Yposition Zposition Zrotation Xrotation Yrotation
        JOINT Neck
        {
          OFFSET 0 22.3885 -0.4656
          CHANNELS 6 Xposition Yposition Zposition Zrotation Xrotation Yrotation
          JOINT Head
          {
            OFFSET -0.0001 12.643 3.4389
            CHANNELS 6 Xposition Yposition Zposition Zrotation Xrotation Yrotation
            End Site
            {
              OFFSET 0.0001 17.6655 0.5274
            }
          }
        }
        JOINT LeftCollar
        {
          OFFSET 2.2603 21.606 7.4023
          CHANNELS 6 Xposition Yposition Zposition Zrotation Xrotation Yrotation
          JOINT LeftShoulder
          {
            OFFSET 13.5163 -1.1332 -5.0146
            CHANNELS 6 Xposition Yposition Zposition Zrotation Xrotation Yrotation
            JOINT LeftElbow
            {
              OFFSET -0.0995 -28.05 -0.2431
              CHANNELS 6 Xposition Yposition Zposition Zrotation Xrotation Yrotation
              JOINT LeftWrist
              {
                OFFSET 0.0679 -23.3996 -0.1402
                CHANNELS 6 Xposition Yposition Zposition Zrotation Xrotation Yrotation
                JOINT LeftFinger1
                {
                  OFFSET 0.7932 -9.069 2.5189
                  CHANNELS 6 Xposition Yposition Zposition Zrotation Xrotation Yrotation
                  JOINT LeftFinger11
                  {
                    OFFSET -0.8272 -3.3923 0.5977
                    CHANNELS 6 Xposition Yposition Zposition Zrotation Xrotation Yrotation
                    JOINT LeftFinger12
                    {
                      OFFSET -0.5649 -2.3158 0.4082
                      CHANNELS 6 Xposition Yposition Zposition Zrotation Xrotation Yrotation
                      End Site
                      {
                        OFFSET -0.4919 -1.6479 0.2673
                      }
                    }
                  }
                }
                JOINT LeftFinger2
                {
                  OFFSET 0.9159 -9.2044 0.2193
                  CHANNELS 6 Xposition Yposition Zposition Zrotation Xrotation Yrotation
                  JOINT LeftFinger21
                  {
                    OFFSET 0.0117 -4.1944 -0.0248
                    CHANNELS 6 Xposition Yposition Zposition Zrotation Xrotation Yrotation
                    JOINT LeftFinger22
                    {
                      OFFSET 0.0071 -2.3249 -0.0142
                      CHANNELS 6 Xposition Yposition Zposition Zrotation Xrotation Yrotation
                      End Site
                      {
                        OFFSET -0.1475 -2.0882 0.0028
                      }
                    }
                  }
                }
                JOINT LeftFinger3
                {
                  OFFSET 0.6113 -8.7231 -2.0637
                  CHANNELS 6 Xposition Yposition Zposition Zrotation Xrotation Yrotation
                  JOINT LeftFinger31
                  {
                    OFFSET -0.1927 -3.8059 -0.2383
                    CHANNELS 6 Xposition Yposition Zposition Zrotation Xrotation Yrotation
                    JOINT LeftFinger32
                    {
                      OFFSET -0.1091 -2.1688 -0.1362
                      CHANNELS 6 Xposition Yposition Zposition Zrotation Xrotation Yrotation
                      End Site
                      {
                        OFFSET -0.2358 -1.9176 -0.0906
                      }
                    }
                  }
                }
                JOINT LeftFinger4
                {
                  OFFSET -0.6151 -8.0947 -3.5641
                  CHANNELS 6 Xposition Yposition Zposition Zrotation Xrotation Yrotation
                  JOINT LeftFinger41
                  {
                    OFFSET -0.4882 -2.341 -0.6462
                    CHANNELS 6 Xposition Yposition Zposition Zrotation Xrotation Yrotation
                    JOINT LeftFinger42
                    {
                      OFFSET -0.3575 -1.7167 -0.4742
                      CHANNELS 6 Xposition Yposition Zposition Zrotation Xrotation Yrotation
                      End Site
                      {
                        OFFSET -0.4187 -1.5237 -0.3496
                      }
                    }
                  }
                }
                JOINT LeftFinger0
                {
                  OFFSET -1.42 -1.8761 1.4223
                  CHANNELS 6 Xposition Yposition Zposition Zrotation Xrotation Yrotation
                  JOINT LeftFinger01
                  {
                    OFFSET -1.1471 -3.4929 2.6334
                    CHANNELS 6 Xposition Yposition Zposition Zrotation Xrotation Yrotation
                    JOINT LeftFinger02
                    {
                      OFFSET -0.823 -2.3 1.6571
                      CHANNELS 6 Xposition Yposition Zposition Zrotation Xrotation Yrotation
                      End Site
                      {
                        OFFSET -0.5822 -1.6914 1.1582
                      }
                    }
                  }
                }
              }
            }
          }
        }
        JOINT RightCollar
        {
          OFFSET -2.2603 21.606 7.4023
          CHANNELS 6 Xposition Yposition Zposition Zrotation Xrotation Yrotation
          JOINT RightShoulder
          {
            OFFSET -13.5187 -1.1334 -5.0155
            CHANNELS 6 Xposition Yposition Zposition Zrotation Xrotation Yrotation
            JOINT RightElbow
            {
              OFFSET 0.0994 -28.0499 -0.2431
              CHANNELS 6 Xposition Yposition Zposition Zrotation Xrotation Yrotation
              JOINT RightWrist
              {
                OFFSET -0.0679 -23.3996 -0.1402
                CHANNELS 6 Xposition Yposition Zposition Zrotation Xrotation Yrotation
                JOINT RightFinger1
                {
                  OFFSET -0.7932 -9.0691 2.5189
                  CHANNELS 6 Xposition Yposition Zposition Zrotation Xrotation Yrotation
                  JOINT RightFinger11
                  {
                    OFFSET 0.8272 -3.3923 0.5977
                    CHANNELS 6 Xposition Yposition Zposition Zrotation Xrotation Yrotation
                    JOINT RightFinger12
                    {
                      OFFSET 0.565 -2.3158 0.4082
                      CHANNELS 6 Xposition Yposition Zposition Zrotation Xrotation Yrotation
                      End Site
                      {
                        OFFSET 0.4919 -1.6479 0.2673
                      }
                    }
                  }
                }
                JOINT RightFinger2
                {
                  OFFSET -0.916 -9.2044 0.2193
                  CHANNELS 6 Xposition Yposition Zposition Zrotation Xrotation Yrotation
                  JOINT RightFinger21
                  {
                    OFFSET -0.0117 -4.1944 -0.0248
                    CHANNELS 6 Xposition Yposition Zposition Zrotation Xrotation Yrotation
                    JOINT RightFinger22
                    {
                      OFFSET -0.0071 -2.3249 -0.0142
                      CHANNELS 6 Xposition Yposition Zposition Zrotation Xrotation Yrotation
                      End Site
                      {
                        OFFSET 0.1475 -2.0882 0.0028
                      }
                    }
                  }
                }
                JOINT RightFinger3
                {
                  OFFSET -0.6113 -8.7231 -2.0637
                  CHANNELS 6 Xposition Yposition Zposition Zrotation Xrotation Yrotation
                  JOINT RightFinger31
                  {
                    OFFSET 0.1927 -3.8059 -0.2383
                    CHANNELS 6 Xposition Yposition Zposition Zrotation Xrotation Yrotation
                    JOINT RightFinger32
                    {
                      OFFSET 0.1091 -2.1688 -0.1362
                      CHANNELS 6 Xposition Yposition Zposition Zrotation Xrotation Yrotation
                      End Site
                      {
                        OFFSET 0.2358 -1.9176 -0.0906
                      }
                    }
                  }
                }
                JOINT RightFinger4
                {
                  OFFSET 0.6151 -8.0947 -3.564
                  CHANNELS 6 Xposition Yposition Zposition Zrotation Xrotation Yrotation
                  JOINT RightFinger41
                  {
                    OFFSET 0.4882 -2.341 -0.6462
                    CHANNELS 6 Xposition Yposition Zposition Zrotation Xrotation Yrotation
                    JOINT RightFinger42
                    {
                      OFFSET 0.3574 -1.7166 -0.4742
                      CHANNELS 6 Xposition Yposition Zposition Zrotation Xrotation Yrotation
                      End Site
                      {
                        OFFSET 0.4187 -1.5237 -0.3496
                      }
                    }
                  }
                }
                JOINT RightFinger0
                {
                  OFFSET 1.4199 -1.8761 1.4221
                  CHANNELS 6 Xposition Yposition Zposition Zrotation Xrotation Yrotation
                  JOINT RightFinger01
                  {
                    OFFSET 1.1472 -3.4929 2.6336
                    CHANNELS 6 Xposition Yposition Zposition Zrotation Xrotation Yrotation
                    JOINT RightFinger02
                    {
                      OFFSET 0.8229 -2.3 1.6571
                      CHANNELS 6 Xposition Yposition Zposition Zrotation Xrotation Yrotation
                      End Site
                      {
                        OFFSET 0.5822 -1.6914 1.1582
                      }
                    }
                  }
                }
              }
            }
          }
        }
      }
    }
  }
  JOINT RightHip
  {
    OFFSET -9.412 3.9771 -0.7758
    CHANNELS 6 Xposition Yposition Zposition Zrotation Xrotation Yrotation
    JOINT RightKnee
    {
      OFFSET -0.7531 -40.938 0
      CHANNELS 6 Xposition Yposition Zposition Zrotation Xrotation Yrotation
      JOINT RightAnkle
      {
        OFFSET 0 -40.1986 0
        CHANNELS 6 Xposition Yposition Zposition Zrotation Xrotation Yrotation
        JOINT RightToe
        {
          OFFSET 0 -4.4182 9.239
          CHANNELS 6 Xposition Yposition Zposition Zrotation Xrotation Yrotation
          End Site
          {
            OFFSET 0 0 6.1981
          }
        }
      }
    }
  }
  JOINT LeftHip
  {
    OFFSET 9.4119 3.9773 -0.7758
    CHANNELS 6 Xposition Yposition Zposition Zrotation Xrotation Yrotation
    JOINT LeftKnee
    {
      OFFSET 0.7532 -40.9383 0
      CHANNELS 6 Xposition Yposition Zposition Zrotation Xrotation Yrotation
      JOINT LeftAnkle
      {
        OFFSET 0 -40.1986 0
        CHANNELS 6 Xposition Yposition Zposition Zrotation Xrotation Yrotation
        JOINT LeftToe
        {
          OFFSET 0 -4.4182 9.239
          CHANNELS 6 Xposition Yposition Zposition Zrotation Xrotation Yrotation
          End Site
          {
            OFFSET 0 0 6.1981
          }
        }
      }
    }
  }
}
MOTION
Frames:	4
Frame Time:	0.0333333
5.80788e-005 67.184 3.4734 0 0 -0 0 8.7983 -4.7612 0 0 -0 0 8.0291 0.4195 0 0 -0 0 9.9351 -2.2114 0 0 -0 0 22.3885 -0.4656 0 0 -0 -0.0001 12.643 3.4389 0 0 -0 2.2603 21.606 7.4023 0 0 -12.5014 13.5163 -1.1332 -5.0146 88.1196 14.2451 10.6914 -0.0995 -28.05 -0.2431 -0.00160068 -0.00239207 0.000740045 0.0679 -23.3996 -0.1402 -8.4365e-005 7.00714e-005 -9.52055e-007 0.7932 -9.069 2.5189 9.93923e-017 -1.98785e-016 -1.59028e-015 -0.8272 -3.3923 0.5977 9.93923e-017 -5.96354e-016 -1.59028e-015 -0.5649 -2.3158 0.4082 -9.93923e-017 -5.96354e-016 -1.59028e-015 0.9159 -9.2044 0.2193 9.93923e-017 -1.98785e-016 -1.59028e-015 0.0117 -4.1944 -0.0248 -0.0128176 0.00232552 8.52707e-005 0.0071 -2.3249 -0.0142 9.93923e-017 5.96354e-016 -0 0.6113 -8.7231 -2.0637 9.93923e-017 -1.98785e-016 -1.59028e-015 -0.1927 -3.8059 -0.2383 -0.0160551 0.00299681 0.000857156 -0.1091 -2.1688 -0.1362 -2.48481e-016 0 3.18055e-015 -0.6151 -8.0947 -3.5641 9.93923e-017 -1.98785e-016 -1.59028e-015 -0.4882 -2.341 -0.6462 -0.0125865 0.0031206 0.00282719 -0.3575 -1.7167 -0.4742 0 1.98785e-016 -0 -1.42 -1.8761 1.4223 9.93923e-017 -1.98785e-016 -1.59028e-015 -1.1471 -3.4929 2.6334 9.93923e-017 -5.96354e-016 -1.59028e-015 -0.823 -2.3 1.6571 -9.93923e-017 -5.96354e-016 -1.59028e-015 -2.2603 21.606 7.4023 -0.865644 0.16582 7.03859 -13.5187 -1.1334 -5.0155 -88.0329 10.2057 -10.5567 0.0994 -28.0499 -0.2431 0.0015593 -0.00248883 -0.000788628 -0.0679 -23.3996 -0.1402 7.87605e-005 4.10553e-005 1.24965e-005 -0.7932 -9.0691 2.5189 -3.97569e-016 -7.95139e-016 3.18055e-015 0.8272 -3.3923 0.5977 -1.98785e-016 -3.97569e-016 3.18055e-015 0.565 -2.3158 0.4082 -1.98785e-016 0 3.18055e-015 -0.916 -9.2044 0.2193 -3.97569e-016 -7.95139e-016 3.18055e-015 -0.0117 -4.1944 -0.0248 0.0129473 0.00231697 -8.70038e-005 -0.0071 -2.3249 -0.0142 9.93923e-017 -7.95139e-016 1.59028e-015 -0.6113 -8.7231 -2.0637 -3.97569e-016 -7.95139e-016 3.18055e-015 0.1927 -3.8059 -0.2383 0.0163314 0.00303369 -0.000872333 0.1091 -2.1688 -0.1362 3.97569e-016 7.95139e-016 -3.18055e-015 0.6151 -8.0947 -3.564 -3.97569e-016 -7.95139e-016 3.18055e-015 0.4882 -2.341 -0.6462 0.0145763 0.00367772 -0.00326275 0.3574 -1.7166 -0.4742 9.93923e-017 -3.97569e-016 -0 1.4199 -1.8761 1.4221 -3.97569e-016 -7.95139e-016 3.18055e-015 1.1472 -3.4929 2.6336 -1.98785e-016 -3.97569e-016 3.18055e-015 0.8229 -2.3 1.6571 -1.98785e-016 0 3.18055e-015 -9.412 3.9771 -0.7758 3.42485 1.36937 -0.0640303 -0.7531 -40.938 0 0.000136572 0.69354 0.00145564 1.77636e-015 -40.1986 -1.11022e-016 -3.42573 -2.06297 -0.0607933 8.88178e-016 -4.4182 9.239 -3.19502e-024 0 -1.48106e-024 9.4119 3.9773 -0.7758 -3.42498 1.36123 0.0639712 0.7532 -40.9383 2.22045e-016 -6.769e-005 0.712612 -0.0012277 8.88179e-016 -40.1986 0 3.42582 -2.07388 0.0612819 -8.88178e-016 -4.4182 9.239 2.55305e-023 0 -2.31416e-026 
2.56312 35.1955 37.7147 -0.0151062 0.00480107 -125.263 -3.55271e-015 8.7983 -4.7612 -1.47141 2.51894 -0.0765111 0 8.0291 0.4195 -2.94372 5.03901 -0.0883183 7.10543e-015 9.9351 -2.2114 -2.94372 5.03902 -0.0883297 3.55271e-015 22.3885 -0.4656 -6.01728e-005 7.39874 -8.02408e-006 -0.0001 12.643 3.4389 3.09886e-006 -27.4107 -9.0594e-007 2.2603 21.606 7.4023 -8.44249 -49.2466 5.04977 13.5163 -1.1332 -5.0146 45.9518 28.8895 -0.348408 -0.0995 -28.05 -0.2431 52.5983 -15.1496 15.6696 0.0679 -23.3996 -0.1402 -2.62865 -3.72462 19.9852 0.7932 -9.069 2.5189 -1.13104e-005 1.43284e-006 -3.75707e-006 -0.8272 -3.3923 0.5977 -1.58788e-023 5.72095e-007 1.59028e-015 -0.5649 -2.3158 0.4082 9.34428e-007 9.47169e-007 -2.42569e-006 0.9159 -9.2044 0.2193 -1.13104e-005 1.43284e-006 -3.75707e-006 0.0117 -4.1944 -0.0248 -0.012808 0.00233073 8.62735e-005 0.0071 -2.3249 -0.0142 1.10348e-031 -7.95139e-016 7.95139e-015 0.6113 -8.7231 -2.0637 -1.13104e-005 1.43284e-006 -3.75707e-006 -0.1927 -3.8059 -0.2383 -0.016014 0.00297935 0.000853505 -0.1091 -2.1688 -0.1362 -1.04322e-006 3.81176e-006 -4.40094e-006 -0.6151 -8.0947 -3.5641 -1.13104e-005 1.43284e-006 -3.75707e-006 -0.4882 -2.341 -0.6462 -0.0126129 0.00313125 0.00283609 -0.3575 -1.7167 -0.4742 2.32211e-006 -1.02996e-005 -3.58348e-006 -1.42 -1.8761 1.4223 -1.13104e-005 1.43284e-006 -3.75707e-006 -1.1471 -3.4929 2.6334 -1.58788e-023 5.72095e-007 1.59028e-015 -0.823 -2.3 1.6571 9.34428e-007 9.47169e-007 -2.42569e-006 -2.2603 21.606 7.4023 0.526183 -21.8514 22.8396 -13.5187 -1.1334 -5.0155 -47.5825 -16.0467 -18.6223 0.0994 -28.0499 -0.2431 4.40763 -28.0525 -0.525238 -0.0679 -23.3996 -0.1402 7.05353 -2.88078 -9.57283 -0.7932 -9.0691 2.5189 -0 -7.95139e-015 -0 0.8272 -3.3923 0.5977 3.18055e-015 -4.77083e-015 9.54166e-015 0.565 -2.3158 0.4082 9.75686e-007 5.66949e-006 -2.77322e-006 -0.916 -9.2044 0.2193 -0 -7.95139e-015 -0 -0.0117 -4.1944 -0.0248 0.0129087 0.00231753 -8.43155e-005 -0.0071 -2.3249 -0.0142 -3.18055e-015 1.11319e-014 -3.18055e-015 -0.6113 -8.7231 -2.0637 -0 -7.95139e-015 -0 0.1927 -3.8059 -0.2383 0.0163517 0.00305118 -0.000869835 0.1091 -2.1688 -0.1362 3.18055e-015 4.77083e-015 3.18055e-015 0.6151 -8.0947 -3.564 -0 -7.95139e-015 -0 0.4882 -2.341 -0.6462 0.0145762 0.0036901 -0.00326166 0.3574 -1.7166 -0.4742 1.06287e-005 -7.2803e-007 4.52545e-006 1.4199 -1.8761 1.4221 -0 -7.95139e-015 -0 1.1472 -3.4929 2.6336 3.18055e-015 -4.77083e-015 9.54166e-015 0.8229 -2.3 1.6571 9.75686e-007 5.66949e-006 -2.77322e-006 -9.412 3.9771 -0.7758 -2.32547 -10.3563 -1.74455 -0.7531 -40.938 0 -70.3498 84.9729 68.4574 0 -40.1986 8.88178e-016 -8.77287 36.0565 1.01048 3.55271e-015 -4.4182 9.239 4.80378e-006 -1.03011e-005 4.41028e-006 9.4119 3.9773 -0.7758 1.11971 -12.109 3.9108 0.7532 -40.9383 0 62.407 85.1165 -61.0905 -1.42109e-014 -40.1986 -4.44089e-016 8.75771 35.9214 2.5415 0 -4.4182 9.239 -6.36111e-015 -1.27222e-014 1.59028e-014 
7.4444 20.8319 54.3649 -0.0117114 0.0120496 178.369 0 8.7983 -4.7612 -2.16912 3.72191 -0.176905 0 8.0291 0.4195 -4.34049 7.44786 -0.212838 0 9.9351 -2.2114 -4.3405 7.44788 -0.212839 0 22.3885 -0.4656 -6.21769e-005 10.7281 -5.3312e-006 -0.0001 12.643 3.4389 4.88603e-006 -39.7456 1.42053e-006 2.2603 21.606 7.4023 11.5423 -66.8092 33.5238 13.5163 -1.1332 -5.0146 26.4152 33.5274 -6.16624 -0.0995 -28.05 -0.2431 75.8642 -20.0083 24.3589 0.0679 -23.3996 -0.1402 -3.73959 -5.46051 28.9532 0.7932 -9.069 2.5189 1.98785e-016 3.67752e-015 3.18055e-015 -0.8272 -3.3923 0.5977 -1.52406e-005 1.36809e-005 3.03536e-006 -0.5649 -2.3158 0.4082 7.78143e-006 -4.65807e-006 -1.62273e-006 0.9159 -9.2044 0.2193 1.98785e-016 3.67752e-015 3.18055e-015 0.0117 -4.1944 -0.0248 -0.0128624 0.00235279 8.13463e-005 0.0071 -2.3249 -0.0142 3.97569e-016 5.96354e-016 -9.54166e-015 0.6113 -8.7231 -2.0637 1.98785e-016 3.67752e-015 3.18055e-015 -0.1927 -3.8059 -0.2383 -0.0160192 0.00298344 0.000860688 -0.1091 -2.1688 -0.1362 -2.26573e-006 1.07931e-006 -6.48673e-006 -0.6151 -8.0947 -3.5641 1.98785e-016 3.67752e-015 3.18055e-015 -0.4882 -2.341 -0.6462 -0.012585 0.00312609 0.00283071 -0.3575 -1.7167 -0.4742 -5.47405e-006 9.08943e-006 -8.61546e-006 -1.42 -1.8761 1.4223 1.98785e-016 3.67752e-015 3.18055e-015 -1.1471 -3.4929 2.6334 -1.52406e-005 1.36809e-005 3.03536e-006 -0.823 -2.3 1.6571 7.78143e-006 -4.65807e-006 -1.62273e-006 -2.2603 21.606 7.4023 5.31148 -30.3518 31.1779 -13.5187 -1.1334 -5.0155 -30.2639 -28.7954 -21.8221 0.0994 -28.0499 -0.2431 7.7446 -41.2101 0.872973 -0.0679 -23.3996 -0.1402 10.1046 -4.11037 -14.1415 -0.7932 -9.0691 2.5189 -3.18055e-015 3.58258e-008 1.36664e-015 0.8272 -3.3923 0.5977 -1.14874e-032 6.4605e-016 1.01877e-015 0.565 -2.3158 0.4082 -3.10353e-033 5.96354e-016 2.98177e-016 -0.916 -9.2044 0.2193 -3.18055e-015 3.58258e-008 1.36664e-015 -0.0117 -4.1944 -0.0248 0.0129565 0.00231022 -8.67107e-005 -0.0071 -2.3249 -0.0142 6.36111e-015 -1.98785e-016 -3.97569e-016 -0.6113 -8.7231 -2.0637 -3.18055e-015 3.58258e-008 1.36664e-015 0.1927 -3.8059 -0.2383 0.0163298 0.00303068 -0.000880568 0.1091 -2.1688 -0.1362 -1.51653e-006 6.47795e-006 -2.10663e-006 0.6151 -8.0947 -3.564 -3.18055e-015 3.58258e-008 1.36664e-015 0.4882 -2.341 -0.6462 0.014611 0.00368232 -0.00327112 0.3574 -1.7166 -0.4742 3.18055e-015 -2.98177e-016 -1.98785e-016 1.4199 -1.8761 1.4221 -3.18055e-015 3.58258e-008 1.36664e-015 1.1472 -3.4929 2.6336 -1.14874e-032 6.4605e-016 1.01877e-015 0.8229 -2.3 1.6571 -3.10353e-033 5.96354e-016 2.98177e-016 -9.412 3.9771 -0.7758 -4.62995 -15.3269 -3.90284 -0.7531 -40.938 -7.10543e-015 -170.01 53.596 164 -3.55271e-015 -40.1986 -7.10543e-015 -10.9833 54.9869 0.835014 0 -4.4182 9.239 2.42517e-014 6.36111e-015 -6.36111e-015 9.4119 3.9773 -0.7758 3.15723 -17.7383 7.10241 0.7532 -40.9383 -7.10543e-015 169.798 54.4588 -164.868 -2.22045e-016 -40.1986 0 7.81293 54.7162 6.71785 3.55271e-015 -4.4182 9.23901 -7.95139e-016 3.18055e-015 3.18055e-015 
6.29673 24.0225 50.4305 -0.0133532 0.011028 -169.105 8.88178e-016 8.7983 -4.7612 -2.11403 3.58921 -0.139877 1.77636e-015 8.0291 0.4195 -4.23176 7.18114 -0.147166 -1.77636e-015 9.9351 -2.2114 -4.23178 7.18117 -0.147167 0 22.3885 -0.4656 2.8681e-005 9.9881 3.59569e-006 -0.0001 12.643 3.4389 -1.03807e-006 -37.0045 -4.93671e-007 2.2603 21.606 7.4023 3.4388 -63.8291 24.3225 13.5163 -1.1332 -5.0146 31.631 32.207 -5.29282 -0.0995 -28.05 -0.2431 66.9675 -19.5905 21.8548 0.0679 -23.3996 -0.1402 -3.497 -5.07217 26.9614 0.7932 -9.06901 2.5189 5.74155e-006 -3.45262e-006 2.2989e-006 -0.8272 -3.3923 0.5977 -1.59028e-015 -4.77083e-015 3.18055e-015 -0.5649 -2.3158 0.4082 -5.74155e-006 3.45262e-006 -2.2989e-006 0.9159 -9.2044 0.2193 5.74155e-006 -3.45262e-006 2.2989e-006 0.0117 -4.1944 -0.0248 -0.0128151 0.00233639 8.41266e-005 0.0071 -2.3249 -0.0142 -4.77083e-015 7.95139e-016 3.18055e-015 0.6113 -8.7231 -2.0637 5.74155e-006 -3.45262e-006 2.2989e-006 -0.1927 -3.8059 -0.2383 -0.0160105 0.00298494 0.00085045 -0.1091 -2.1688 -0.1362 -1.59028e-015 1.56486e-006 3.18055e-015 -0.6151 -8.0947 -3.5641 5.74155e-006 -3.45262e-006 2.2989e-006 -0.4882 -2.341 -0.6462 -0.0125857 0.0031225 0.00282734 -0.3575 -1.7167 -0.4742 -5.5258e-007 -8.52296e-007 1.44083e-006 -1.42 -1.8761 1.4223 5.74155e-006 -3.45262e-006 2.2989e-006 -1.1471 -3.4929 2.6334 -1.59028e-015 -4.77083e-015 3.18055e-015 -0.823 -2.3 1.6571 -5.74155e-006 3.45262e-006 -2.2989e-006 -2.2603 21.606 7.4023 3.35339 -28.4516 27.6665 -13.5187 -1.1334 -5.0155 -33.5207 -26.056 -20.7014 0.0994 -28.0499 -0.2431 7.61094 -39.7204 0.893999 -0.0679 -23.3996 -0.1402 9.14944 -3.64133 -13.6828 -0.7932 -9.0691 2.5189 3.31043e-032 5.96354e-016 -3.18055e-015 0.8272 -3.3923 0.5977 1.80835e-006 1.02628e-005 -2.47615e-006 0.565 -2.3158 0.4082 -3.6167e-006 -1.21168e-006 4.9523e-006 -0.916 -9.2044 0.2193 3.31043e-032 5.96354e-016 -3.18055e-015 -0.0117 -4.1944 -0.0248 0.0129257 0.00232154 -9.29617e-005 -0.0071 -2.3249 -0.0142 9.54166e-015 -1.54058e-015 5.96354e-016 -0.6113 -8.7231 -2.0637 3.31043e-032 5.96354e-016 -3.18055e-015 0.1927 -3.8059 -0.2383 0.0163139 0.00303153 -0.000879924 0.1091 -2.1688 -0.1362 7.58535e-006 8.21081e-006 8.53887e-007 0.6151 -8.0947 -3.564 3.31043e-032 5.96354e-016 -3.18055e-015 0.4882 -2.341 -0.6462 0.0145567 0.00368369 -0.00324423 0.3574 -1.7166 -0.4742 -2.06159e-006 -8.61594e-006 -9.11239e-006 1.4199 -1.8761 1.4221 3.31043e-032 5.96354e-016 -3.18055e-015 1.1472 -3.4929 2.6336 1.80835e-006 1.02628e-005 -2.47615e-006 0.8229 -2.3 1.6571 -3.6167e-006 -1.21168e-006 4.9523e-006 -9.412 3.9771 -0.7758 -4.14687 -14.1878 -3.20897 -0.7531 -40.938 7.10543e-015 -167.37 61.7305 162.579 0 -40.1986 0 -10.5976 50.6482 0.98668 -3.55271e-015 -4.4182 9.239 -2.3932e-006 9.96904e-006 2.8008e-006 9.4119 3.9773 -0.7758 2.72091 -16.3117 6.16261 0.7532 -40.9383 0 167.292 62.552 -163.45 1.77636e-015 -40.1986 -3.55271e-015 8.50768 50.4284 5.33017 8.88178e-016 -4.4182 9.239 -1.25617e-006 -7.15954e-006 -5.37306e-007 
